<svg width="334" height="121" viewBox="0 0 334 121" fill="none" xmlns="http://www.w3.org/2000/svg">
<rect width="334" height="121" rx="20" fill="#04CB4B"/>
<path d="M117.23 47.9648C119.937 47.9648 122.194 49.459 123.572 52.0488H130.213V45.8398H134.396V76.1211H130.213V64.7988H123.904C122.543 67.7871 120.152 69.5137 117.23 69.5137C112.648 69.5137 109.361 65.3633 109.395 58.7227C109.361 52.1484 112.648 47.9648 117.23 47.9648ZM117.23 51.7832C114.973 51.7832 113.412 54.2402 113.445 58.7227C113.412 63.2383 114.973 65.6621 117.23 65.6621C119.521 65.6621 121.016 63.2383 121.016 58.7227C121.016 54.2402 119.521 51.7832 117.23 51.7832ZM124.768 55.4688C124.95 56.4648 125.066 57.5605 125.066 58.7227C125.066 59.6689 124.983 60.5654 124.867 61.4121H130.213V55.4688H124.768ZM164.246 45.8398V64.7988H160.229V56.7637H157.805V63.8027H153.854V46.4043H157.805V53.3105H160.229V45.8398H164.246ZM152.957 48.9609V52.248H138.115V48.9609H143.461V46.1055H147.678V48.9609H152.957ZM145.586 53.2441C149.438 53.2441 152.16 55.3691 152.193 58.5234C152.16 61.6445 149.438 63.7695 145.586 63.7695C141.801 63.7695 139.045 61.6445 139.045 58.5234C139.045 55.3691 141.801 53.2441 145.586 53.2441ZM145.586 56.2988C143.926 56.2988 142.83 57.1289 142.83 58.5234C142.83 59.918 143.926 60.7812 145.586 60.748C147.246 60.7812 148.342 59.918 148.375 58.5234C148.342 57.1289 147.246 56.2988 145.586 56.2988ZM153.92 65.0645C160.461 65.0645 164.379 67.0566 164.412 70.5762C164.379 74.0625 160.461 76.0547 153.92 76.0547C147.412 76.0547 143.461 74.0625 143.461 70.5762C143.461 67.0566 147.412 65.0645 153.92 65.0645ZM153.92 68.252C149.836 68.252 147.678 68.9824 147.711 70.5762C147.678 72.1035 149.836 72.8672 153.92 72.8672C158.037 72.8672 160.129 72.1035 160.129 70.5762C160.129 68.9824 158.037 68.252 153.92 68.252ZM184.898 48.7617V52.1152H178.789C178.855 55.0869 181.047 58.1416 185.861 59.3535L184.002 62.6074C180.516 61.7275 178.092 59.835 176.73 57.4277C175.386 60.084 172.962 62.1924 169.426 63.1719L167.434 59.8184C172.248 58.5732 174.506 55.3857 174.572 52.1152H168.496V48.7617H174.572V45.707H178.855V48.7617H184.898ZM191.639 45.8398V52.6133H195.723V56.0996H191.639V63.0723H187.389V45.8398H191.639ZM192.004 64.3672V67.6875H184.334C185.098 69.9121 188.069 72.0703 193.332 72.7676L191.838 75.9883C186.974 75.3408 183.554 73.3984 181.811 70.8086C180.084 73.3818 176.681 75.2744 171.883 75.9219L170.355 72.7012C175.668 72.0537 178.606 69.9619 179.387 67.6875H171.65V64.3672H192.004ZM222.451 45.8398V76.0547H218.168V45.8398H222.451ZM213.387 48.9941C213.387 58.1582 210.166 65.7617 199.375 70.875L197.15 67.4883C204.953 63.8027 208.39 59.0215 209.07 52.3145H198.777V48.9941H213.387Z" fill="white"/>
</svg>
