<svg width="233" height="29" viewBox="0 0 233 29" fill="none" xmlns="http://www.w3.org/2000/svg">
<path d="M25.413 0.109999C27.003 0.109999 28.023 1.13 28.023 2.69V28.28H22.773V15.98H21.273V28.28H16.023V2.69C16.023 1.13 17.073 0.109999 18.663 0.109999C20.253 0.109999 21.273 1.13 21.273 2.69V11H22.773V2.69C22.773 1.13 23.823 0.109999 25.413 0.109999ZM11.673 1.1C13.413 1.1 14.253 2.15 14.253 3.92V26.99H5.25305C1.77305 26.99 0.903047 25.79 0.903047 22.49V3.92C0.903047 2.12 1.86305 1.1 3.60305 1.1C5.31305 1.1 6.15305 2.15 6.15305 3.92V8.66H9.03305L9.06305 3.92C9.06305 2.12 9.96305 1.1 11.673 1.1ZM6.99305 22.34H8.94305L9.00305 13.25H6.15305V21.56C6.15305 22.25 6.30305 22.34 6.99305 22.34ZM57.573 28.28H51.573V3.08C51.573 1.13 52.983 0.109999 54.573 0.109999C56.163 0.109999 57.573 1.13 57.573 3.08V28.28ZM47.403 27.02H36.183C32.553 27.02 31.143 25.7 31.143 22.07V16.31C31.143 12.68 32.553 11.42 36.183 11.42H41.733V7.04C41.733 6.65 41.613 6.23 40.983 6.23H33.963C32.163 6.23 31.413 4.97 31.413 3.74C31.413 2.54 32.133 1.22 33.963 1.22H42.633C46.653 1.22 47.733 2.36 47.733 5.66V16.31H38.493C37.473 16.31 37.143 16.55 37.143 17.57V20.84C37.143 21.86 37.473 22.1 38.493 22.1H47.403C49.233 22.1 49.953 23.36 49.953 24.56C49.953 25.79 49.203 27.02 47.403 27.02ZM84.573 0.109999C86.163 0.109999 87.573 1.13 87.573 3.08V28.28H81.573V16.37H77.733V19.7C77.733 24.89 74.283 27.71 69.453 27.71C64.593 27.71 61.113 24.89 61.113 19.7V8.6C61.113 3.44 64.563 0.589998 69.423 0.589998C74.283 0.589998 77.733 3.41 77.733 8.6V11.24H81.573V3.08C81.573 1.13 82.983 0.109999 84.573 0.109999ZM71.973 19.97V8.3C71.973 6.44 70.743 5.45 69.423 5.48C68.073 5.51 66.873 6.47 66.873 8.3V19.97C66.873 21.89 68.073 22.82 69.423 22.82C70.743 22.82 71.973 21.89 71.973 19.97ZM89.973 14.15C89.973 12.92 90.633 11.57 92.403 11.57H103.203C104.973 11.57 105.633 12.92 105.633 14.15C105.633 15.38 104.943 16.82 103.203 16.82H92.403C90.663 16.82 89.973 15.38 89.973 14.15ZM131.689 6.14H110.749C108.949 6.14 108.229 4.85 108.229 3.62C108.229 2.42 108.919 1.1 110.749 1.1H131.689C133.519 1.1 134.209 2.42 134.209 3.62C134.209 4.85 133.489 6.14 131.689 6.14ZM132.049 17.78H110.389C108.589 17.78 107.869 16.61 107.869 15.38C107.869 14.18 108.559 12.98 110.389 12.98H112.429V10.31C112.429 8.18 113.689 7.25 115.519 7.25C117.319 7.25 118.549 8.21 118.549 10.31V12.98H123.889V10.31C123.889 8.18 125.149 7.25 126.979 7.25C128.779 7.25 130.009 8.21 130.009 10.31V12.98H132.049C133.879 12.98 134.569 14.18 134.569 15.38C134.569 16.61 133.849 17.78 132.049 17.78ZM109.759 22.61H132.679C134.539 22.61 135.259 23.93 135.259 25.16C135.259 26.42 134.509 27.68 132.679 27.68H109.759C107.929 27.68 107.179 26.42 107.179 25.16C107.179 23.93 107.899 22.61 109.759 22.61ZM164.419 28.28H158.419V3.08C158.419 1.13 159.829 0.109999 161.419 0.109999C163.009 0.109999 164.419 1.13 164.419 3.08V28.28ZM154.249 27.02H143.029C139.399 27.02 137.989 25.7 137.989 22.07V16.31C137.989 12.68 139.399 11.42 143.029 11.42H148.579V7.04C148.579 6.65 148.459 6.23 147.829 6.23H140.809C139.009 6.23 138.259 4.97 138.259 3.74C138.259 2.54 138.979 1.22 140.809 1.22H149.479C153.499 1.22 154.579 2.36 154.579 5.66V16.31H145.339C144.319 16.31 143.989 16.55 143.989 17.57V20.84C143.989 21.86 144.319 22.1 145.339 22.1H154.249C156.079 22.1 156.799 23.36 156.799 24.56C156.799 25.79 156.049 27.02 154.249 27.02ZM181.707 1.01H199.887C201.567 1.01 202.197 2.24 202.197 3.35C202.197 4.49 201.537 5.66 199.887 5.66H183.927C183.327 5.66 183.027 5.9 183.027 6.44V7.61H199.707C201.387 7.61 202.017 8.78 202.017 9.86C202.017 10.97 201.357 12.11 199.707 12.11H183.027V13.25C183.027 13.85 183.327 14.06 183.927 14.06H200.367C202.047 14.06 202.677 15.26 202.677 16.37C202.677 17.51 202.017 18.68 200.367 18.68H181.707C178.227 18.68 176.937 17.24 176.937 14V5.69C176.937 2.45 178.227 1.01 181.707 1.01ZM178.167 22.61H201.087C202.947 22.61 203.667 23.93 203.667 25.16C203.667 26.42 202.917 27.68 201.087 27.68H178.167C176.337 27.68 175.587 26.42 175.587 25.16C175.587 23.93 176.307 22.61 178.167 22.61ZM232.827 3.08V15.98H226.827V3.08C226.827 1.13 228.237 0.109999 229.827 0.109999C231.417 0.109999 232.827 1.13 232.827 3.08ZM223.587 15.95H211.047C207.957 15.95 206.247 14.09 206.247 11.39V10.91C206.247 8.21 207.927 6.56 210.747 6.56H216.807V5.48C216.807 5.06 216.627 4.94 216.117 4.94H208.317C206.997 4.94 206.367 3.92 206.367 2.9C206.367 1.85 207.027 0.829999 208.317 0.829999H219.027C221.787 0.829999 222.957 2.18 222.957 4.37V10.28H213.267C212.787 10.28 212.397 10.52 212.397 11.06V11.15C212.397 11.69 212.787 11.9 213.267 11.9H223.587C224.877 11.9 225.507 12.92 225.507 13.94C225.507 14.96 224.937 15.95 223.587 15.95ZM229.887 16.7C231.657 16.7 232.857 17.57 232.857 19.49V28.28H211.797C208.527 28.28 207.627 27.11 207.627 24.17V19.49C207.627 17.54 208.887 16.7 210.657 16.7C212.247 16.7 213.387 17.42 213.597 18.95H226.887C227.097 17.39 228.297 16.7 229.887 16.7ZM214.347 24.41H226.857V22.67H213.627V23.75C213.627 24.32 213.777 24.41 214.347 24.41Z" fill="#04CB4B"/>
</svg>
