<svg width="534" height="121" viewBox="0 0 534 121" fill="none" xmlns="http://www.w3.org/2000/svg">
<rect width="534" height="121" rx="20" fill="#04CB4B"/>
<path d="M120.617 54.0742C120.617 58.9551 123.107 64.168 128.188 66.293L125.896 69.6133C122.327 68.1025 119.87 65.0977 118.525 61.4121C117.147 65.4131 114.641 68.7334 111.088 70.377L108.664 67.0234C113.678 64.7988 116.268 59.1875 116.268 54.0742V52.2148H109.859V48.7617H126.926V52.2148H120.617V54.0742ZM134.197 45.8398V76.0547H129.914V45.8398H134.197ZM162.652 47.2012V49.625C162.652 51.9824 162.652 54.6055 161.955 58.0586H165.939V61.4785H138.281V58.0586H157.672C158.336 55.0371 158.419 52.6963 158.436 50.5879H141.668V47.2012H162.652ZM162.553 64.666V75.7227H141.568V64.666H162.553ZM145.719 67.9863V72.3359H158.336V67.9863H145.719ZM199.342 45.8398V57.1289H203.791V60.6816H199.342V76.0547H195.092V45.8398H199.342ZM180.682 48.2305V55.6016H186.957V48.2305H191.174V69.0488H176.465V48.2305H180.682ZM180.682 65.6289H186.957V58.8887H180.682V65.6289ZM232.545 69.2148V72.7012H204.887V69.2148H216.541V64.666H208.074V54.5059H225.174V51.1855H208.041V47.7988H229.357V57.8262H212.324V61.2129H230.055V64.666H220.758V69.2148H232.545ZM250.441 47.9648C253.147 47.9648 255.405 49.459 256.783 52.0488H263.424V45.8398H267.607V76.1211H263.424V64.7988H257.115C255.754 67.7871 253.363 69.5137 250.441 69.5137C245.859 69.5137 242.572 65.3633 242.605 58.7227C242.572 52.1484 245.859 47.9648 250.441 47.9648ZM250.441 51.7832C248.184 51.7832 246.623 54.2402 246.656 58.7227C246.623 63.2383 248.184 65.6621 250.441 65.6621C252.732 65.6621 254.227 63.2383 254.227 58.7227C254.227 54.2402 252.732 51.7832 250.441 51.7832ZM257.979 55.4688C258.161 56.4648 258.277 57.5605 258.277 58.7227C258.277 59.6689 258.194 60.5654 258.078 61.4121H263.424V55.4688H257.979ZM297.457 45.8398V64.7988H293.439V56.7637H291.016V63.8027H287.064V46.4043H291.016V53.3105H293.439V45.8398H297.457ZM286.168 48.9609V52.248H271.326V48.9609H276.672V46.1055H280.889V48.9609H286.168ZM278.797 53.2441C282.648 53.2441 285.371 55.3691 285.404 58.5234C285.371 61.6445 282.648 63.7695 278.797 63.7695C275.012 63.7695 272.256 61.6445 272.256 58.5234C272.256 55.3691 275.012 53.2441 278.797 53.2441ZM278.797 56.2988C277.137 56.2988 276.041 57.1289 276.041 58.5234C276.041 59.918 277.137 60.7812 278.797 60.748C280.457 60.7812 281.553 59.918 281.586 58.5234C281.553 57.1289 280.457 56.2988 278.797 56.2988ZM287.131 65.0645C293.672 65.0645 297.59 67.0566 297.623 70.5762C297.59 74.0625 293.672 76.0547 287.131 76.0547C280.623 76.0547 276.672 74.0625 276.672 70.5762C276.672 67.0566 280.623 65.0645 287.131 65.0645ZM287.131 68.252C283.047 68.252 280.889 68.9824 280.922 70.5762C280.889 72.1035 283.047 72.8672 287.131 72.8672C291.248 72.8672 293.34 72.1035 293.34 70.5762C293.34 68.9824 291.248 68.252 287.131 68.252ZM324.717 45.8398V57.6602H329.166V61.1465H324.717V76.0547H320.533V45.8398H324.717ZM318.475 50.3555V53.7422H300.711V50.3555H307.551V46.3047H311.801V50.3555H318.475ZM309.676 55.4355C314.092 55.4355 317.379 58.4238 317.379 62.6406C317.379 66.8574 314.092 69.8457 309.676 69.8457C305.227 69.8457 301.939 66.8574 301.939 62.6406C301.939 58.4238 305.227 55.4355 309.676 55.4355ZM309.676 58.8555C307.551 58.8887 305.99 60.3164 305.99 62.6406C305.99 64.998 307.551 66.3926 309.676 66.3594C311.801 66.3926 313.328 64.998 313.328 62.6406C313.328 60.3164 311.801 58.8887 309.676 58.8555ZM355.729 45.8398V76.1211H351.512V60.1836H346.631V56.7305H351.512V45.8398H355.729ZM344.938 48.3633V59.6855H335.541V65.5957C339.708 65.5625 343.244 65.4131 347.129 64.7324L347.461 68.1855C342.979 68.916 338.861 69.082 333.814 69.082H331.324V56.332H340.82V51.7832H331.258V48.3633H344.938ZM391.322 45.8398V57.4277H395.605V60.9141H391.322V75.9883H387.072V45.8398H391.322ZM383.254 48.9277C383.221 57.959 379.701 65.7949 369.541 70.7754L367.15 67.5215C374.306 63.9355 378.141 59.1211 378.938 52.3809H368.877V48.9277H383.254ZM422.268 45.8398V76.0547H417.984V45.8398H422.268ZM413.203 48.9941C413.203 58.1582 409.982 65.7617 399.191 70.875L396.967 67.4883C404.77 63.8027 408.206 59.0215 408.887 52.3145H398.594V48.9941H413.203Z" fill="white"/>
</svg>
