<svg width="20" height="24" viewBox="0 0 20 24" fill="none" xmlns="http://www.w3.org/2000/svg">
<path d="M1.5 23.913C0.671573 23.913 0 23.2415 0 22.413V9.47102C0 8.64259 0.671573 7.97102 1.5 7.97102H2.25C3.07843 7.97102 3.75 7.29944 3.75 6.47102V5.69358C3.75 4.11836 4.35958 2.77543 5.57875 1.6648C6.79792 0.554176 8.27167 -0.000758366 10 7.77812e-07C11.7292 7.77812e-07 13.2033 0.555315 14.4225 1.66594C15.6417 2.77657 16.2508 4.11912 16.25 5.69358V6.47102C16.25 7.29944 16.9216 7.97102 17.75 7.97102H18.5C19.3284 7.97102 20 8.64259 20 9.47102V22.413C20 23.2415 19.3284 23.913 18.5 23.913H1.5ZM6.25 6.47102C6.25 7.29944 6.92157 7.97102 7.75 7.97102H12.25C13.0784 7.97102 13.75 7.29944 13.75 6.47102V5.69358C13.75 4.74465 13.3854 3.93806 12.6562 3.27381C11.9271 2.60956 11.0417 2.27743 10 2.27743C8.95833 2.27743 8.07292 2.60956 7.34375 3.27381C6.61458 3.93806 6.25 4.74465 6.25 5.69358V6.47102ZM10 18.2195C10.6875 18.2195 11.2763 17.9963 11.7663 17.5499C12.2563 17.1035 12.5008 16.5676 12.5 15.942C12.5 15.3157 12.255 14.7794 11.765 14.333C11.275 13.8866 10.6867 13.6638 10 13.6646C9.3125 13.6646 8.72375 13.8878 8.23375 14.3342C7.74375 14.7805 7.49917 15.3165 7.5 15.942C7.5 16.5683 7.745 17.1047 8.235 17.551C8.725 17.9974 9.31333 18.2202 10 18.2195Z" fill="#04CB4B"/>
</svg>
